<svg id="Layer_1" data-name="Layer 1" xmlns="http://www.w3.org/2000/svg" xmlns:xlink="http://www.w3.org/1999/xlink" viewBox="0 0 1307.38 239.6"><defs><style>.cls-1{fill:url(#linear-gradient);}.cls-2,.cls-3,.cls-4,.cls-5{stroke:#fff;stroke-miterlimit:9.02;stroke-width:8.11px;}.cls-2{fill:url(#linear-gradient-2);}.cls-3{fill:url(#linear-gradient-3);}.cls-4{fill:url(#linear-gradient-4);}.cls-5{fill:url(#linear-gradient-5);}.cls-6{fill:url(#linear-gradient-6);}.cls-7{fill:url(#linear-gradient-7);}.cls-8{fill:url(#linear-gradient-8);}.cls-9{fill:url(#linear-gradient-9);}.cls-10{fill:#fff;}</style><linearGradient id="linear-gradient" x1="-90.07" y1="464.35" x2="173.65" y2="616.61" gradientTransform="translate(72.07 -383.5) scale(0.9)" gradientUnits="userSpaceOnUse"><stop offset="0" stop-color="#f60"/><stop offset="1" stop-color="#ff8533"/></linearGradient><linearGradient id="linear-gradient-2" x1="11.72" y1="686.07" x2="11.72" y2="686.07" xlink:href="#linear-gradient"/><linearGradient id="linear-gradient-3" x1="11.72" y1="563.39" x2="11.72" y2="563.39" xlink:href="#linear-gradient"/><linearGradient id="linear-gradient-4" x1="10.44" y1="686.07" x2="10.44" y2="686.07" xlink:href="#linear-gradient"/><linearGradient id="linear-gradient-5" x1="10.44" y1="563.39" x2="10.44" y2="563.39" xlink:href="#linear-gradient"/><linearGradient id="linear-gradient-6" x1="64.27" y1="628.84" x2="64.27" y2="628.84" xlink:href="#linear-gradient"/><linearGradient id="linear-gradient-7" x1="149.32" y1="441.91" x2="149.32" y2="441.91" xlink:href="#linear-gradient"/><linearGradient id="linear-gradient-8" x1="149.32" y1="531.95" x2="149.32" y2="531.95" xlink:href="#linear-gradient"/><linearGradient id="linear-gradient-9" x1="173.67" y1="613.9" x2="173.67" y2="613.9" xlink:href="#linear-gradient"/></defs><g id="Rounded_Rectangle_1" data-name="Rounded Rectangle 1"><path class="cls-1" d="M231.09,13.18,8.57,13.07A8.57,8.57,0,0,0,0,21.63H0v28a8.57,8.57,0,0,0,8.56,8.57h0l3.07.05a8.57,8.57,0,0,1,8.57,8.54l.31,81.88c0,31.65,7.69,57.71,25,76.24s42.74,27.81,76.28,27.81q44.59,0,70.56-24.52c15.47-14.63,26-35.82,27.68-60.69.33-4.92-3.6-7.62-8.57-7.62h-28a8.54,8.54,0,0,0-8.5,7.62c-1.19,11.4-9.44,20.74-16.18,27.66-8.21,8.42-23.76,12.55-38.19,12.55-15.26,0-32.46-6.65-40.9-16.34s-14.51-21-14.51-39l.25-85.66A8.57,8.57,0,0,1,74,58.11h0L166.27,58a8.57,8.57,0,0,1,8.57,8.56h0c0,14.42-.09,21.27-8.54,29.44-10.23,9.92-25,10.39-38.43,10.45l-16.23.06q-4.35-.2-8.7,0c-4.34.45-7.62,4.83-7.62,9.19,0,7.15,0,13.32,0,20.47v2.7a15.78,15.78,0,0,0,.72,5.83,12.79,12.79,0,0,0,5.35,5.84,11.89,11.89,0,0,0,4.38.65c9.43.21,17.49.56,26.92.2q3.5-.13,7-.39c2.54-.2,5.08-.45,7.6-.77,16.41-2.06,33-7.44,46.11-17.76a60.88,60.88,0,0,0,6.78-6.16c16.23-17.18,19.74-30.43,19.84-59.64a8.5,8.5,0,0,1,8.36-8.65h.06l2.71.06a8.58,8.58,0,0,0,8.5-8.56V21.66a8.48,8.48,0,0,0-8.45-8.48Z" transform="translate(0 -13.07)"/><path class="cls-2" d="M82.63,235.08" transform="translate(0 -13.07)"/><path class="cls-3" d="M82.63,124.47" transform="translate(0 -13.07)"/><path class="cls-4" d="M81.48,235.08" transform="translate(0 -13.07)"/><path class="cls-5" d="M81.48,124.47" transform="translate(0 -13.07)"/><path class="cls-6" d="M130,183.48" transform="translate(0 -13.07)"/><path class="cls-7" d="M206.7,14.94" transform="translate(0 -13.07)"/><path class="cls-8" d="M206.7,96.12" transform="translate(0 -13.07)"/><path class="cls-9" d="M228.65,170" transform="translate(0 -13.07)"/></g><path class="cls-10" d="M339.17,53.91V213.5H300.29V53.91Z" transform="translate(0 -13.07)"/><path class="cls-10" d="M459.91,213.53,406.26,143v70.49H367.37V53.94h38.89v70l53.19-70h45.71l-61.85,78.21,64.11,81.41Z" transform="translate(0 -13.07)"/><path class="cls-10" d="M625.23,185.34H565.65l-9.54,28.19H515.4L573.16,53.94h45l57.76,159.59H634.77Zm-10-30L595.44,96.88l-19.56,58.44Z" transform="translate(0 -13.07)"/><path class="cls-10" d="M836.24,213.53H797.36l-65-98.46v98.46H693.44V53.94h38.88l65,98.91V53.91h38.88Z" transform="translate(0 -13.07)"/><path class="cls-10" d="M890.81,209.44a51,51,0,0,1-22.17-16.83q-8.31-11.15-8.76-26.83h41.39q.9,8.86,6.14,13.53T921.05,184q8.64,0,13.64-4t5-11a13.13,13.13,0,0,0-4-9.78,32.27,32.27,0,0,0-9.78-6.36,155,155,0,0,0-16.49-5.68,177.88,177.88,0,0,1-25.24-9.56,46.52,46.52,0,0,1-16.82-14.09q-7-9.31-7-24.35,0-22.26,16.14-34.9t42.07-12.62q26.37,0,42.52,12.62T978.36,99.4H936.29q-.46-7.73-5.69-12.17t-13.41-4.42q-7.07,0-11.37,3.75t-4.33,10.82q0,7.71,7.28,12t22.74,9.32a212.41,212.41,0,0,1,25.13,10,47.83,47.83,0,0,1,16.71,13.87q7,9.1,7,23.44a45.9,45.9,0,0,1-6.94,24.79q-6.94,11.15-20.12,17.73t-31.17,6.54Q904.68,215.12,890.81,209.44Z" transform="translate(0 -13.07)"/><path class="cls-10" d="M1142.53,53.91V213.5h-38.89V147.83h-60.48v65.72h-38.89V54h38.89v62.53h60.48V53.91Z" transform="translate(0 -13.07)"/><path class="cls-10" d="M1307.38,53.91l-55.22,106.87v52.75h-38.87V160.78L1158,53.91h44.12l30.93,66.84,30.65-66.84Z" transform="translate(0 -13.07)"/></svg>